<svg >
<path d="M318.343 161.502L312.813 141.021H305.52C303.636 147.828 301.813 154.878 299.929 161.502L291.785 135.126H282.182L296.282 177H303.332L309.106 154.999L315.001 177H321.99L336.211 135.126H326.548L318.343 161.502ZM348.351 148.618H339.964V177H348.351V148.618ZM338.87 138.104C338.87 140.839 341.301 143.088 344.157 143.088C347.074 143.088 349.323 140.839 349.323 138.104C349.323 135.248 347.014 133.181 344.157 133.181C341.301 133.181 338.87 135.308 338.87 138.104ZM356.107 133.181V177H364.555V133.181H356.107ZM372.31 133.181V177H380.757V133.181H372.31ZM396.899 148.618H388.512V177H396.899V148.618ZM387.418 138.104C387.418 140.839 389.849 143.088 392.706 143.088C395.623 143.088 397.872 140.839 397.872 138.104C397.872 135.248 395.562 133.181 392.706 133.181C389.849 133.181 387.418 135.308 387.418 138.104ZM425.684 177H434.071V148.618H425.684V151.778C423.375 148.679 419.303 148.01 417.419 148.01C410.186 148.01 402.954 153.723 402.954 162.779C402.954 171.834 410.186 177.547 417.419 177.547C419.546 177.547 423.922 176.453 425.684 173.779V177ZM411.706 162.779C411.706 158.707 415.231 156.033 418.816 156.033C422.281 156.033 425.684 158.585 425.684 162.779C425.684 167.033 422.281 169.525 418.816 169.525C415.231 169.525 411.706 166.851 411.706 162.779ZM473.229 156.215C475.72 156.215 477.908 158.16 477.908 161.867V177H486.295V160.895C486.295 152.325 482.163 148.01 475.356 148.01C473.289 148.01 469.643 148.618 466.847 153.055C465.267 149.712 462.228 148.071 457.731 148.071C454.631 148.071 451.714 149.773 450.316 152.751V148.618H441.869V177H450.316V161.989C450.316 157.674 452.626 156.215 455.239 156.215C457.67 156.215 459.858 158.038 459.919 161.685V177H468.367V161.989C468.367 157.856 470.554 156.215 473.229 156.215ZM540.79 161.502L535.259 141.021H527.966C526.082 147.828 524.259 154.878 522.375 161.502L514.231 135.126H504.628L518.728 177H525.778L531.552 154.999L537.447 177H544.436L558.657 135.126H548.994L540.79 161.502ZM570.858 161.989C570.858 157.674 573.836 156.215 576.51 156.215C579.123 156.215 581.736 158.16 581.736 161.867V177H590.184V161.563C590.184 152.994 586.355 148.01 578.819 148.01C576.145 148.01 571.951 149.53 570.858 153.055V133.181H562.41V177H570.858V161.989ZM618.633 177H627.02V148.618H618.633V151.778C616.323 148.679 612.252 148.01 610.368 148.01C603.135 148.01 595.903 153.723 595.903 162.779C595.903 171.834 603.135 177.547 610.368 177.547C612.495 177.547 616.87 176.453 618.633 173.779V177ZM604.655 162.779C604.655 158.707 608.18 156.033 611.765 156.033C615.23 156.033 618.633 158.585 618.633 162.779C618.633 167.033 615.23 169.525 611.765 169.525C608.18 169.525 604.655 166.851 604.655 162.779ZM645.879 148.618V137.739H637.492V148.618H632.326V155.303H637.492V177H645.879V155.303H651.835V148.618H645.879ZM657.015 133.181V177H665.462V133.181H657.015ZM693.152 167.641C691.754 169.525 689.323 170.315 686.953 170.315C683.914 170.315 680.45 168.856 679.964 165.574H700.749C700.809 164.845 700.87 163.69 700.87 162.961C700.87 154.027 694.428 148.01 686.345 148.01C678.262 148.01 671.516 153.723 671.516 162.718C671.516 171.652 678.262 177.608 686.345 177.608C691.207 177.608 696.373 176.088 699.29 171.834L693.152 167.641ZM680.085 160.287C680.754 156.64 684.096 155.425 686.406 155.425C688.837 155.425 691.875 156.823 692.362 160.287H680.085ZM733.02 148.618H724.025L717.704 164.723L711.444 148.618H702.45L713.389 174.083L706.582 190.917H715.516L733.02 148.618Z" fill="white"/>
<rect x="240" y="130" width="20.3332" height="8.71424" fill="white"/>
<path fill-rule="evenodd" clip-rule="evenodd" d="M140.839 130H130V138.714V138.714C135.467 138.714 140.387 142.031 142.437 147.099L160.984 192.953C168.268 192.953 184.244 192.936 191.99 192.936L168.246 133.873C166.309 130 166.512 130 164.373 130H142.587H140.839Z" fill="#6046CF"/>
<path d="M178 130H209.396C209.791 130.309 210.074 131.841 211.332 134.358L223.47 164.934L227.936 175.865C230.005 180.93 234.931 184.239 240.402 184.239V192.953L203.586 192.953L187.314 152.755L178 130Z" fill="#6046CF"/>
</svg>
